<?xml version="1.0" encoding="UTF-8" standalone="no"?>
<!DOCTYPE svg PUBLIC "-//W3C//DTD SVG 1.1//EN" "http://www.w3.org/Graphics/SVG/1.1/DTD/svg11.dtd">
<svg width="1909px" height="409px" version="1.1" xmlns="http://www.w3.org/2000/svg" xmlns:xlink="http://www.w3.org/1999/xlink" xml:space="preserve" xmlns:serif="http://www.serif.com/" style="fill-rule:evenodd;clip-rule:evenodd;stroke-linejoin:round;stroke-miterlimit:2;">
    <g transform="matrix(4.16667,0,0,4.16667,-2045.83,-679.46)">
        <g transform="matrix(0.125336,0,0,0.125336,339.73,-127.752)">
            <g transform="matrix(1041.67,0,0,1041.67,1168.37,3102.63)">
                <path d="M0.399,-0.75L0.761,0L0.68,0L0.399,-0.575L0.118,0L0.037,0L0.399,-0.75Z" style="fill:#fff;fill-rule:nonzero;"/>
            </g>
            <g transform="matrix(1041.67,0,0,1041.67,1999.62,3102.63)">
                <path d="M0.104,-0.411L0.52,-0.411L0.52,-0.338L0.104,-0.338L0.104,-0.411ZM0.104,-0.751L0.588,-0.751L0.588,-0.678L0.104,-0.678L0.104,-0.751ZM0.104,-0.073L0.588,-0.073L0.588,0L0.104,0L0.104,-0.073Z" style="fill:#fff;fill-rule:nonzero;"/>
            </g>
            <g transform="matrix(1041.67,0,0,1041.67,2720.46,3102.63)">
                <path d="M0.15,0L0.15,-0.751L0.492,-0.751L0.492,-0.678L0.224,-0.678L0.224,0L0.15,0Z" style="fill:#fff;fill-rule:nonzero;"/>
            </g>
            <g transform="matrix(1041.67,0,0,1041.67,3285.04,3102.63)">
                <path d="M0.574,0L0.574,-0.338L0.178,-0.338L0.178,0L0.104,0L0.104,-0.411L0.574,-0.411L0.574,-0.751L0.648,-0.751L0.648,0L0.574,0Z" style="fill:#fff;fill-rule:nonzero;"/>
            </g>
            <g transform="matrix(1041.67,0,0,1041.67,4068.37,3102.63)">
                <path d="M0.399,-0.75L0.761,0L0.68,0L0.399,-0.575L0.118,0L0.037,0L0.399,-0.75Z" style="fill:#fff;fill-rule:nonzero;"/>
            </g>
        </g>
    </g>
</svg>
